<mxfile host="app.diagrams.net" agent="Mozilla/5.0 (Windows NT 10.0; Win64; x64) AppleWebKit/537.36 (KHTML, like Gecko) Chrome/129.0.0.0 Safari/537.36" version="24.7.16" pages="2">
  <diagram name="Page-1" id="_LbMvX68r_Q11qrTd9Ho">
    <mxGraphModel dx="1035" dy="551" grid="1" gridSize="10" guides="1" tooltips="1" connect="1" arrows="1" fold="1" page="1" pageScale="1" pageWidth="850" pageHeight="1100" math="0" shadow="0">
      <root>
        <mxCell id="0" />
        <mxCell id="1" parent="0" />
        <mxCell id="u9zw-Gek_UsbFvJQRJ9L-1" value="Mulai" style="ellipse;whiteSpace=wrap;html=1;" vertex="1" parent="1">
          <mxGeometry x="330" width="110" height="70" as="geometry" />
        </mxCell>
        <mxCell id="u9zw-Gek_UsbFvJQRJ9L-3" value="" style="endArrow=classic;html=1;rounded=0;exitX=0.773;exitY=0.133;exitDx=0;exitDy=0;exitPerimeter=0;" edge="1" parent="1">
          <mxGeometry width="50" height="50" relative="1" as="geometry">
            <mxPoint x="384.53" y="70.00000000000003" as="sourcePoint" />
            <mxPoint x="385" y="100" as="targetPoint" />
          </mxGeometry>
        </mxCell>
        <mxCell id="u9zw-Gek_UsbFvJQRJ9L-7" style="edgeStyle=orthogonalEdgeStyle;rounded=0;orthogonalLoop=1;jettySize=auto;html=1;" edge="1" parent="1" source="u9zw-Gek_UsbFvJQRJ9L-4">
          <mxGeometry relative="1" as="geometry">
            <mxPoint x="384.9999999999999" y="200" as="targetPoint" />
          </mxGeometry>
        </mxCell>
        <mxCell id="u9zw-Gek_UsbFvJQRJ9L-4" value="Int Lampu Merah, Lampu Kuning, Lampu Hijau" style="shape=hexagon;perimeter=hexagonPerimeter2;whiteSpace=wrap;html=1;fixedSize=1;" vertex="1" parent="1">
          <mxGeometry x="300" y="100" width="170" height="70" as="geometry" />
        </mxCell>
        <mxCell id="u9zw-Gek_UsbFvJQRJ9L-14" style="edgeStyle=orthogonalEdgeStyle;rounded=0;orthogonalLoop=1;jettySize=auto;html=1;" edge="1" parent="1" source="u9zw-Gek_UsbFvJQRJ9L-11">
          <mxGeometry relative="1" as="geometry">
            <mxPoint x="280" y="320" as="targetPoint" />
            <Array as="points">
              <mxPoint x="280" y="245" />
            </Array>
          </mxGeometry>
        </mxCell>
        <mxCell id="u9zw-Gek_UsbFvJQRJ9L-11" value="Lampu Merah" style="rhombus;whiteSpace=wrap;html=1;" vertex="1" parent="1">
          <mxGeometry x="330" y="200" width="110" height="90" as="geometry" />
        </mxCell>
        <mxCell id="u9zw-Gek_UsbFvJQRJ9L-17" style="edgeStyle=orthogonalEdgeStyle;rounded=0;orthogonalLoop=1;jettySize=auto;html=1;exitX=1;exitY=0.5;exitDx=0;exitDy=0;" edge="1" parent="1" source="u9zw-Gek_UsbFvJQRJ9L-11">
          <mxGeometry relative="1" as="geometry">
            <mxPoint x="490" y="320" as="targetPoint" />
            <mxPoint x="490" y="240" as="sourcePoint" />
            <Array as="points">
              <mxPoint x="490" y="245" />
              <mxPoint x="490" y="320" />
            </Array>
          </mxGeometry>
        </mxCell>
      </root>
    </mxGraphModel>
  </diagram>
  <diagram id="9ZGHeZoS9PWMxgw2dxP1" name="Page-2">
    <mxGraphModel dx="1257" dy="669" grid="1" gridSize="10" guides="1" tooltips="1" connect="1" arrows="1" fold="1" page="1" pageScale="1" pageWidth="850" pageHeight="1100" math="0" shadow="0">
      <root>
        <mxCell id="0" />
        <mxCell id="1" parent="0" />
        <mxCell id="MehPHf0Otwen1fB2uvL--1" value="Mulai" style="ellipse;whiteSpace=wrap;html=1;" vertex="1" parent="1">
          <mxGeometry x="21" y="10" width="110" height="70" as="geometry" />
        </mxCell>
        <mxCell id="MehPHf0Otwen1fB2uvL--2" value="" style="endArrow=classic;html=1;rounded=0;exitX=0.773;exitY=0.133;exitDx=0;exitDy=0;exitPerimeter=0;" edge="1" parent="1">
          <mxGeometry width="50" height="50" relative="1" as="geometry">
            <mxPoint x="74.52999999999997" y="80.00000000000003" as="sourcePoint" />
            <mxPoint x="75" y="110" as="targetPoint" />
          </mxGeometry>
        </mxCell>
        <mxCell id="MehPHf0Otwen1fB2uvL--3" value="&lt;font style=&quot;font-size: 12px;&quot;&gt;Usia : Int&lt;/font&gt;" style="shape=hexagon;perimeter=hexagonPerimeter2;whiteSpace=wrap;html=1;fixedSize=1;" vertex="1" parent="1">
          <mxGeometry x="11" y="110" width="130" height="40" as="geometry" />
        </mxCell>
        <mxCell id="MehPHf0Otwen1fB2uvL--4" value="Usia (0-12)" style="rhombus;whiteSpace=wrap;html=1;" vertex="1" parent="1">
          <mxGeometry x="25" y="250" width="100" height="90" as="geometry" />
        </mxCell>
        <mxCell id="6gycth60JptQv0EjStbF-4" value="Input Usia" style="shape=parallelogram;perimeter=parallelogramPerimeter;whiteSpace=wrap;html=1;fixedSize=1;" vertex="1" parent="1">
          <mxGeometry x="20" y="180" width="110" height="40" as="geometry" />
        </mxCell>
        <mxCell id="6gycth60JptQv0EjStbF-6" value="" style="endArrow=classic;html=1;rounded=0;exitX=0.773;exitY=0.133;exitDx=0;exitDy=0;exitPerimeter=0;" edge="1" parent="1">
          <mxGeometry width="50" height="50" relative="1" as="geometry">
            <mxPoint x="74.40999999999997" y="150.00000000000003" as="sourcePoint" />
            <mxPoint x="74.88" y="180" as="targetPoint" />
          </mxGeometry>
        </mxCell>
        <mxCell id="6gycth60JptQv0EjStbF-9" value="" style="endArrow=classic;html=1;rounded=0;exitX=0.773;exitY=0.133;exitDx=0;exitDy=0;exitPerimeter=0;" edge="1" parent="1">
          <mxGeometry width="50" height="50" relative="1" as="geometry">
            <mxPoint x="74.40999999999997" y="220.00000000000003" as="sourcePoint" />
            <mxPoint x="74.88" y="250" as="targetPoint" />
          </mxGeometry>
        </mxCell>
        <mxCell id="6gycth60JptQv0EjStbF-10" value="False" style="endArrow=classic;html=1;rounded=0;entryX=0;entryY=0.5;entryDx=0;entryDy=0;" edge="1" parent="1">
          <mxGeometry x="0.0084" width="50" height="50" relative="1" as="geometry">
            <mxPoint x="124" y="294.41" as="sourcePoint" />
            <mxPoint x="194" y="295" as="targetPoint" />
            <mxPoint as="offset" />
          </mxGeometry>
        </mxCell>
        <mxCell id="6gycth60JptQv0EjStbF-11" value="Usia (13-19)" style="rhombus;whiteSpace=wrap;html=1;" vertex="1" parent="1">
          <mxGeometry x="195" y="250" width="100" height="90" as="geometry" />
        </mxCell>
        <mxCell id="6gycth60JptQv0EjStbF-12" value="False" style="endArrow=classic;html=1;rounded=0;entryX=0;entryY=0.5;entryDx=0;entryDy=0;" edge="1" parent="1">
          <mxGeometry x="0.0084" width="50" height="50" relative="1" as="geometry">
            <mxPoint x="294" y="294.41" as="sourcePoint" />
            <mxPoint x="364" y="295" as="targetPoint" />
            <mxPoint as="offset" />
          </mxGeometry>
        </mxCell>
        <mxCell id="6gycth60JptQv0EjStbF-13" value="Usia (20-64)" style="rhombus;whiteSpace=wrap;html=1;" vertex="1" parent="1">
          <mxGeometry x="365" y="250" width="100" height="90" as="geometry" />
        </mxCell>
        <mxCell id="6gycth60JptQv0EjStbF-14" value="False" style="endArrow=classic;html=1;rounded=0;entryX=0;entryY=0.5;entryDx=0;entryDy=0;" edge="1" parent="1">
          <mxGeometry x="0.0084" width="50" height="50" relative="1" as="geometry">
            <mxPoint x="465" y="294.41" as="sourcePoint" />
            <mxPoint x="535" y="295" as="targetPoint" />
            <mxPoint as="offset" />
          </mxGeometry>
        </mxCell>
        <mxCell id="6gycth60JptQv0EjStbF-16" value="Usia &amp;gt; 65" style="rhombus;whiteSpace=wrap;html=1;" vertex="1" parent="1">
          <mxGeometry x="534" y="250" width="100" height="90" as="geometry" />
        </mxCell>
        <mxCell id="6gycth60JptQv0EjStbF-17" value="False" style="endArrow=classic;html=1;rounded=0;entryX=0;entryY=0.5;entryDx=0;entryDy=0;" edge="1" parent="1">
          <mxGeometry x="0.0084" width="50" height="50" relative="1" as="geometry">
            <mxPoint x="634" y="294.41" as="sourcePoint" />
            <mxPoint x="704" y="295" as="targetPoint" />
            <mxPoint as="offset" />
          </mxGeometry>
        </mxCell>
        <mxCell id="6gycth60JptQv0EjStbF-18" value="tidak valid" style="rounded=0;whiteSpace=wrap;html=1;" vertex="1" parent="1">
          <mxGeometry x="704" y="265" width="120" height="60" as="geometry" />
        </mxCell>
        <mxCell id="6gycth60JptQv0EjStbF-19" value="" style="endArrow=classic;html=1;rounded=0;exitX=0.773;exitY=0.133;exitDx=0;exitDy=0;exitPerimeter=0;" edge="1" parent="1">
          <mxGeometry width="50" height="50" relative="1" as="geometry">
            <mxPoint x="74.40999999999997" y="340" as="sourcePoint" />
            <mxPoint x="75" y="400" as="targetPoint" />
          </mxGeometry>
        </mxCell>
        <mxCell id="6gycth60JptQv0EjStbF-20" value="True" style="edgeLabel;html=1;align=center;verticalAlign=middle;resizable=0;points=[];" vertex="1" connectable="0" parent="6gycth60JptQv0EjStbF-19">
          <mxGeometry x="-0.1903" relative="1" as="geometry">
            <mxPoint as="offset" />
          </mxGeometry>
        </mxCell>
        <mxCell id="6gycth60JptQv0EjStbF-21" value="" style="endArrow=classic;html=1;rounded=0;exitX=0.773;exitY=0.133;exitDx=0;exitDy=0;exitPerimeter=0;" edge="1" parent="1">
          <mxGeometry width="50" height="50" relative="1" as="geometry">
            <mxPoint x="244.40999999999997" y="340" as="sourcePoint" />
            <mxPoint x="245" y="400" as="targetPoint" />
          </mxGeometry>
        </mxCell>
        <mxCell id="6gycth60JptQv0EjStbF-22" value="True" style="edgeLabel;html=1;align=center;verticalAlign=middle;resizable=0;points=[];" vertex="1" connectable="0" parent="6gycth60JptQv0EjStbF-21">
          <mxGeometry x="-0.1903" relative="1" as="geometry">
            <mxPoint as="offset" />
          </mxGeometry>
        </mxCell>
        <mxCell id="6gycth60JptQv0EjStbF-23" value="" style="endArrow=classic;html=1;rounded=0;" edge="1" parent="1">
          <mxGeometry width="50" height="50" relative="1" as="geometry">
            <mxPoint x="414.41" y="340" as="sourcePoint" />
            <mxPoint x="415.41" y="400" as="targetPoint" />
          </mxGeometry>
        </mxCell>
        <mxCell id="6gycth60JptQv0EjStbF-24" value="True" style="edgeLabel;html=1;align=center;verticalAlign=middle;resizable=0;points=[];" vertex="1" connectable="0" parent="6gycth60JptQv0EjStbF-23">
          <mxGeometry x="-0.1903" relative="1" as="geometry">
            <mxPoint as="offset" />
          </mxGeometry>
        </mxCell>
        <mxCell id="6gycth60JptQv0EjStbF-25" value="" style="endArrow=classic;html=1;rounded=0;exitX=0.773;exitY=0.133;exitDx=0;exitDy=0;exitPerimeter=0;" edge="1" parent="1">
          <mxGeometry width="50" height="50" relative="1" as="geometry">
            <mxPoint x="583.41" y="340" as="sourcePoint" />
            <mxPoint x="584" y="400" as="targetPoint" />
          </mxGeometry>
        </mxCell>
        <mxCell id="6gycth60JptQv0EjStbF-26" value="True" style="edgeLabel;html=1;align=center;verticalAlign=middle;resizable=0;points=[];" vertex="1" connectable="0" parent="6gycth60JptQv0EjStbF-25">
          <mxGeometry x="-0.1903" relative="1" as="geometry">
            <mxPoint as="offset" />
          </mxGeometry>
        </mxCell>
        <mxCell id="6gycth60JptQv0EjStbF-27" value="Anak" style="rounded=0;whiteSpace=wrap;html=1;" vertex="1" parent="1">
          <mxGeometry x="20" y="400" width="120" height="60" as="geometry" />
        </mxCell>
        <mxCell id="6gycth60JptQv0EjStbF-28" value="Remaja" style="rounded=0;whiteSpace=wrap;html=1;" vertex="1" parent="1">
          <mxGeometry x="185" y="400" width="120" height="60" as="geometry" />
        </mxCell>
        <mxCell id="6gycth60JptQv0EjStbF-29" value="Dewasa" style="rounded=0;whiteSpace=wrap;html=1;" vertex="1" parent="1">
          <mxGeometry x="355" y="400" width="120" height="60" as="geometry" />
        </mxCell>
        <mxCell id="6gycth60JptQv0EjStbF-30" value="Lansia" style="rounded=0;whiteSpace=wrap;html=1;" vertex="1" parent="1">
          <mxGeometry x="524" y="400" width="120" height="60" as="geometry" />
        </mxCell>
        <mxCell id="6gycth60JptQv0EjStbF-35" value="" style="endArrow=classic;html=1;rounded=0;exitX=0.773;exitY=0.133;exitDx=0;exitDy=0;exitPerimeter=0;" edge="1" parent="1">
          <mxGeometry width="50" height="50" relative="1" as="geometry">
            <mxPoint x="244.40999999999997" y="460" as="sourcePoint" />
            <mxPoint x="245" y="500" as="targetPoint" />
          </mxGeometry>
        </mxCell>
        <mxCell id="6gycth60JptQv0EjStbF-36" value="" style="endArrow=classic;html=1;rounded=0;exitX=0.773;exitY=0.133;exitDx=0;exitDy=0;exitPerimeter=0;" edge="1" parent="1">
          <mxGeometry width="50" height="50" relative="1" as="geometry">
            <mxPoint x="590" y="460" as="sourcePoint" />
            <mxPoint x="70" y="500" as="targetPoint" />
            <Array as="points">
              <mxPoint x="590" y="500" />
            </Array>
          </mxGeometry>
        </mxCell>
        <mxCell id="6gycth60JptQv0EjStbF-37" value="" style="endArrow=classic;html=1;rounded=0;exitX=0.773;exitY=0.133;exitDx=0;exitDy=0;exitPerimeter=0;" edge="1" parent="1">
          <mxGeometry width="50" height="50" relative="1" as="geometry">
            <mxPoint x="414.40999999999997" y="460" as="sourcePoint" />
            <mxPoint x="415" y="500" as="targetPoint" />
          </mxGeometry>
        </mxCell>
        <mxCell id="6gycth60JptQv0EjStbF-42" value="" style="endArrow=none;html=1;rounded=0;entryX=0.5;entryY=1;entryDx=0;entryDy=0;entryPerimeter=0;" edge="1" parent="1">
          <mxGeometry width="50" height="50" relative="1" as="geometry">
            <mxPoint x="74.41" y="550" as="sourcePoint" />
            <mxPoint x="74.41" y="460" as="targetPoint" />
          </mxGeometry>
        </mxCell>
        <mxCell id="6gycth60JptQv0EjStbF-43" value="Output Hasil" style="shape=parallelogram;perimeter=parallelogramPerimeter;whiteSpace=wrap;html=1;fixedSize=1;" vertex="1" parent="1">
          <mxGeometry x="20" y="550" width="110" height="40" as="geometry" />
        </mxCell>
        <mxCell id="6gycth60JptQv0EjStbF-46" value="" style="endArrow=classic;html=1;rounded=0;exitX=0.773;exitY=0.133;exitDx=0;exitDy=0;exitPerimeter=0;" edge="1" parent="1">
          <mxGeometry width="50" height="50" relative="1" as="geometry">
            <mxPoint x="74.40999999999997" y="590" as="sourcePoint" />
            <mxPoint x="75" y="630" as="targetPoint" />
          </mxGeometry>
        </mxCell>
        <mxCell id="6gycth60JptQv0EjStbF-47" value="Selesai" style="ellipse;whiteSpace=wrap;html=1;" vertex="1" parent="1">
          <mxGeometry x="21" y="630" width="110" height="70" as="geometry" />
        </mxCell>
      </root>
    </mxGraphModel>
  </diagram>
</mxfile>
